  0
SECTION
  2
HEADER
  9
$ACADVER
  1
AC1009
  0
ENDSEC
  0
SECTION
  2
TABLES
  0
TABLE
  2
LAYER
  70
1
  0
LAYER
  2
Layer_0
  70
0
  62
7
  6
CONTINUOUS
  0
ENDTAB
  0
ENDSEC
  0
SECTION
  2
ENTITIES
  0
POLYLINE
  5
90
  8
Layer_0
  62
7
  70
1
  66
1
  10
0
  20
0
  30
0
  0
VERTEX
  5
90
  8
Layer_0
  10
480.69598
  20
187.8205
  42
0.1810176
  0
VERTEX
  5
91
  8
Layer_0
  10
483.43732
  20
194.85556
  0
VERTEX
  5
92
  8
Layer_0
  10
483.45511
  20
196.18109
  42
0.070057874
  0
VERTEX
  5
93
  8
Layer_0
  10
482.38181
  20
204.62201
  0
VERTEX
  5
94
  8
Layer_0
  10
468.2789
  20
256.31042
  42
0.33818282
  0
VERTEX
  5
95
  8
Layer_0
  10
447.5
  20
272.17947
  42
0.33818282
  0
VERTEX
  5
96
  8
Layer_0
  10
426.7211
  20
256.31042
  0
VERTEX
  5
97
  8
Layer_0
  10
412.61819
  20
204.62201
  42
0.070057874
  0
VERTEX
  5
98
  8
Layer_0
  10
411.54489
  20
196.18109
  0
VERTEX
  5
99
  8
Layer_0
  10
411.56268
  20
194.85556
  42
0.18101792
  0
VERTEX
  5
9a
  8
Layer_0
  10
414.30402
  20
187.8205
  0
SEQEND
  0
POLYLINE
  5
9c
  8
Layer_0
  62
7
  70
1
  66
1
  10
0
  20
0
  30
0
  0
VERTEX
  5
9c
  8
Layer_0
  10
361.65338
  20
356.54752
  0
VERTEX
  5
9d
  8
Layer_0
  10
358.15448
  20
385.11758
  42
0.0032475617
  0
VERTEX
  5
9e
  8
Layer_0
  10
358.03448
  20
386.04678
  0
VERTEX
  5
9f
  8
Layer_0
  10
353.8728
  20
416.70743
  0
VERTEX
  5
a0
  8
Layer_0
  10
353.26923
  20
425.64102
  0
VERTEX
  5
a1
  8
Layer_0
  10
353.26923
  20
467.8205
  42
-0.41421356
  0
VERTEX
  5
a2
  8
Layer_0
  10
360.44873
  20
474.99997
  0
VERTEX
  5
a3
  8
Layer_0
  10
390.96155
  20
474.99997
  42
-0.41421356
  0
VERTEX
  5
a4
  8
Layer_0
  10
398.14102
  20
467.8205
  0
VERTEX
  5
a5
  8
Layer_0
  10
398.14102
  20
425.64102
  0
VERTEX
  5
a6
  8
Layer_0
  10
393.65384
  20
421.15384
  0
VERTEX
  5
a7
  8
Layer_0
  10
390.76517
  20
421.15384
  42
0.21482651
  0
VERTEX
  5
a8
  8
Layer_0
  10
386.73248
  20
419.33734
  42
0.21482672
  0
VERTEX
  5
a9
  8
Layer_0
  10
385.42065
  20
415.11346
  0
VERTEX
  5
aa
  8
Layer_0
  10
385.91913
  20
411.05072
  42
0.2618535
  0
VERTEX
  5
ab
  8
Layer_0
  10
401.5582
  20
389.79376
  0
VERTEX
  5
ac
  8
Layer_0
  10
410.1933
  20
385.89301
  42
0.10647335
  0
VERTEX
  5
ad
  8
Layer_0
  10
413.14893
  20
385.25641
  0
VERTEX
  5
ae
  8
Layer_0
  10
426.85898
  20
385.25641
  42
0.41421356
  0
VERTEX
  5
af
  8
Layer_0
  10
434.03845
  20
392.43588
  0
VERTEX
  5
b0
  8
Layer_0
  10
434.03845
  20
416.66666
  42
-0.23606747
  0
VERTEX
  5
b1
  8
Layer_0
  10
425.06412
  20
434.61536
  0
VERTEX
  5
b2
  8
Layer_0
  10
425.06412
  20
452.56409
  42
-0.41421356
  0
VERTEX
  5
b3
  8
Layer_0
  10
447.5
  20
474.99997
  42
-0.41421356
  0
VERTEX
  5
b4
  8
Layer_0
  10
469.93588
  20
452.56409
  0
VERTEX
  5
b5
  8
Layer_0
  10
469.93588
  20
434.61536
  42
-0.23606762
  0
VERTEX
  5
b6
  8
Layer_0
  10
460.96155
  20
416.66666
  0
VERTEX
  5
b7
  8
Layer_0
  10
460.96155
  20
392.43588
  42
0.41421356
  0
VERTEX
  5
b8
  8
Layer_0
  10
468.14102
  20
385.25641
  0
VERTEX
  5
b9
  8
Layer_0
  10
481.85107
  20
385.25641
  42
0.10647335
  0
VERTEX
  5
ba
  8
Layer_0
  10
484.8067
  20
385.89301
  0
VERTEX
  5
bb
  8
Layer_0
  10
493.4418
  20
389.79376
  42
0.26185345
  0
VERTEX
  5
bc
  8
Layer_0
  10
509.08087
  20
411.05072
  0
VERTEX
  5
bd
  8
Layer_0
  10
509.57935
  20
415.11343
  42
0.21482656
  0
VERTEX
  5
be
  8
Layer_0
  10
508.26752
  20
419.33734
  42
0.21482705
  0
VERTEX
  5
bf
  8
Layer_0
  10
504.23483
  20
421.15384
  0
VERTEX
  5
c0
  8
Layer_0
  10
501.34616
  20
421.15384
  0
VERTEX
  5
c1
  8
Layer_0
  10
496.85898
  20
425.64102
  0
VERTEX
  5
c2
  8
Layer_0
  10
496.85898
  20
467.8205
  42
-0.41421356
  0
VERTEX
  5
c3
  8
Layer_0
  10
504.03845
  20
474.99997
  0
VERTEX
  5
c4
  8
Layer_0
  10
534.55127
  20
474.99997
  42
-0.41421356
  0
VERTEX
  5
c5
  8
Layer_0
  10
541.73077
  20
467.8205
  0
VERTEX
  5
c6
  8
Layer_0
  10
541.73077
  20
425.64102
  0
VERTEX
  5
c7
  8
Layer_0
  10
541.12723
  20
416.70743
  0
VERTEX
  5
c8
  8
Layer_0
  10
536.96552
  20
386.04681
  42
0.0032611567
  0
VERTEX
  5
c9
  8
Layer_0
  10
536.84555
  20
385.11758
  0
VERTEX
  5
ca
  8
Layer_0
  10
533.3457
  20
356.53995
  0
VERTEX
  5
cb
  8
Layer_0
  10
532.1665
  20
354.55316
  0
VERTEX
  5
cc
  8
Layer_0
  10
531.01885
  20
352.58635
  0
VERTEX
  5
cd
  8
Layer_0
  10
529.90221
  20
350.63803
  0
VERTEX
  5
ce
  8
Layer_0
  10
528.81602
  20
348.70672
  0
VERTEX
  5
cf
  8
Layer_0
  10
527.75972
  20
346.79094
  0
VERTEX
  5
d0
  8
Layer_0
  10
526.73278
  20
344.88921
  0
VERTEX
  5
d1
  8
Layer_0
  10
525.73463
  20
343.00003
  0
VERTEX
  5
d2
  8
Layer_0
  10
524.76473
  20
341.12192
  0
VERTEX
  5
d3
  8
Layer_0
  10
523.82252
  20
339.25341
  0
VERTEX
  5
d4
  8
Layer_0
  10
522.90745
  20
337.39301
  0
VERTEX
  5
d5
  8
Layer_0
  10
522.01897
  20
335.53924
  0
VERTEX
  5
d6
  8
Layer_0
  10
521.15653
  20
333.6906
  0
VERTEX
  5
d7
  8
Layer_0
  10
519.50755
  20
330.00282
  0
VERTEX
  5
d8
  8
Layer_0
  10
517.9561
  20
326.3178
  0
VERTEX
  5
d9
  8
Layer_0
  10
516.49775
  20
322.62368
  0
VERTEX
  5
da
  8
Layer_0
  10
515.12811
  20
318.90858
  0
VERTEX
  5
db
  8
Layer_0
  10
513.84274
  20
315.16063
  0
VERTEX
  5
dc
  8
Layer_0
  10
512.63725
  20
311.36797
  0
VERTEX
  5
dd
  8
Layer_0
  10
511.5072
  20
307.51873
  0
VERTEX
  5
de
  8
Layer_0
  10
510.4482
  20
303.60103
  0
VERTEX
  5
df
  8
Layer_0
  10
509.94395
  20
301.61281
  0
VERTEX
  5
e0
  8
Layer_0
  10
509.45581
  20
299.60302
  0
VERTEX
  5
e1
  8
Layer_0
  10
508.98323
  20
297.57018
  0
VERTEX
  5
e2
  8
Layer_0
  10
508.52564
  20
295.51281
  0
VERTEX
  5
e3
  8
Layer_0
  10
507.99588
  20
292.97421
  0
VERTEX
  5
e4
  8
Layer_0
  10
507.51056
  20
290.43556
  0
VERTEX
  5
e5
  8
Layer_0
  10
507.06922
  20
287.8974
  0
VERTEX
  5
e6
  8
Layer_0
  10
506.67141
  20
285.36027
  0
VERTEX
  5
e7
  8
Layer_0
  10
506.31669
  20
282.82472
  0
VERTEX
  5
e8
  8
Layer_0
  10
506.00459
  20
280.29129
  0
VERTEX
  5
e9
  8
Layer_0
  10
505.73467
  20
277.76051
  0
VERTEX
  5
ea
  8
Layer_0
  10
505.50647
  20
275.23294
  0
VERTEX
  5
eb
  8
Layer_0
  10
505.31955
  20
272.70911
  0
VERTEX
  5
ec
  8
Layer_0
  10
505.17345
  20
270.18957
  0
VERTEX
  5
ed
  8
Layer_0
  10
505.06773
  20
267.67485
  0
VERTEX
  5
ee
  8
Layer_0
  10
505.00192
  20
265.16549
  0
VERTEX
  5
ef
  8
Layer_0
  10
504.97559
  20
262.66205
  0
VERTEX
  5
f0
  8
Layer_0
  10
504.98827
  20
260.16506
  0
VERTEX
  5
f1
  8
Layer_0
  10
505.03952
  20
257.67506
  0
VERTEX
  5
f2
  8
Layer_0
  10
505.12888
  20
255.19259
  0
VERTEX
  5
f3
  8
Layer_0
  10
505.25591
  20
252.7182
  0
VERTEX
  5
f4
  8
Layer_0
  10
505.42015
  20
250.25243
  0
VERTEX
  5
f5
  8
Layer_0
  10
505.62115
  20
247.79582
  0
VERTEX
  5
f6
  8
Layer_0
  10
505.85846
  20
245.34891
  0
VERTEX
  5
f7
  8
Layer_0
  10
506.13163
  20
242.91224
  0
VERTEX
  5
f8
  8
Layer_0
  10
506.44021
  20
240.48635
  0
VERTEX
  5
f9
  8
Layer_0
  10
506.78374
  20
238.0718
  0
VERTEX
  5
fa
  8
Layer_0
  10
507.16177
  20
235.6691
  0
VERTEX
  5
fb
  8
Layer_0
  10
507.57386
  20
233.27882
  0
VERTEX
  5
fc
  8
Layer_0
  10
508.01955
  20
230.90149
  0
VERTEX
  5
fd
  8
Layer_0
  10
508.49839
  20
228.53765
  0
VERTEX
  5
fe
  8
Layer_0
  10
509.00993
  20
226.18785
  0
VERTEX
  5
ff
  8
Layer_0
  10
509.55371
  20
223.85262
  0
VERTEX
  5
100
  8
Layer_0
  10
510.12929
  20
221.53251
  0
VERTEX
  5
101
  8
Layer_0
  10
510.73622
  20
219.22806
  0
VERTEX
  5
102
  8
Layer_0
  10
511.37404
  20
216.93981
  42
-0.10060602
  0
VERTEX
  5
103
  8
Layer_0
  10
513.61557
  20
188.42523
  0
VERTEX
  5
104
  8
Layer_0
  10
506.80038
  20
132.88141
  42
-0.37889028
  0
VERTEX
  5
105
  8
Layer_0
  10
497.89282
  20
125
  0
VERTEX
  5
106
  8
Layer_0
  10
397.10718
  20
125
  42
-0.37889
  0
VERTEX
  5
107
  8
Layer_0
  10
388.19962
  20
132.88141
  0
VERTEX
  5
108
  8
Layer_0
  10
381.3844
  20
188.42523
  42
-0.10060656
  0
VERTEX
  5
109
  8
Layer_0
  10
383.62598
  20
216.93982
  0
VERTEX
  5
10a
  8
Layer_0
  10
384.26378
  20
219.22805
  0
VERTEX
  5
10b
  8
Layer_0
  10
384.87071
  20
221.53251
  0
VERTEX
  5
10c
  8
Layer_0
  10
385.44629
  20
223.85262
  0
VERTEX
  5
10d
  8
Layer_0
  10
385.99007
  20
226.18784
  0
VERTEX
  5
10e
  8
Layer_0
  10
386.50161
  20
228.53765
  0
VERTEX
  5
10f
  8
Layer_0
  10
386.98045
  20
230.90149
  0
VERTEX
  5
110
  8
Layer_0
  10
387.42614
  20
233.27882
  0
VERTEX
  5
111
  8
Layer_0
  10
387.83823
  20
235.6691
  0
VERTEX
  5
112
  8
Layer_0
  10
388.21626
  20
238.07179
  0
VERTEX
  5
113
  8
Layer_0
  10
388.55979
  20
240.48635
  0
VERTEX
  5
114
  8
Layer_0
  10
388.86837
  20
242.91224
  0
VERTEX
  5
115
  8
Layer_0
  10
389.14154
  20
245.34891
  0
VERTEX
  5
116
  8
Layer_0
  10
389.37885
  20
247.79582
  0
VERTEX
  5
117
  8
Layer_0
  10
389.57985
  20
250.25243
  0
VERTEX
  5
118
  8
Layer_0
  10
389.74409
  20
252.7182
  0
VERTEX
  5
119
  8
Layer_0
  10
389.87112
  20
255.19259
  0
VERTEX
  5
11a
  8
Layer_0
  10
389.96048
  20
257.67506
  0
VERTEX
  5
11b
  8
Layer_0
  10
390.01173
  20
260.16506
  0
VERTEX
  5
11c
  8
Layer_0
  10
390.02441
  20
262.66205
  0
VERTEX
  5
11d
  8
Layer_0
  10
389.99808
  20
265.16549
  0
VERTEX
  5
11e
  8
Layer_0
  10
389.93227
  20
267.67485
  0
VERTEX
  5
11f
  8
Layer_0
  10
389.82655
  20
270.18957
  0
VERTEX
  5
120
  8
Layer_0
  10
389.68045
  20
272.70911
  0
VERTEX
  5
121
  8
Layer_0
  10
389.49353
  20
275.23294
  0
VERTEX
  5
122
  8
Layer_0
  10
389.26533
  20
277.76051
  0
VERTEX
  5
123
  8
Layer_0
  10
388.99541
  20
280.29129
  0
VERTEX
  5
124
  8
Layer_0
  10
388.68331
  20
282.82472
  0
VERTEX
  5
125
  8
Layer_0
  10
388.32859
  20
285.36027
  0
VERTEX
  5
126
  8
Layer_0
  10
387.93078
  20
287.8974
  0
VERTEX
  5
127
  8
Layer_0
  10
387.48944
  20
290.43556
  0
VERTEX
  5
128
  8
Layer_0
  10
387.00412
  20
292.97421
  0
VERTEX
  5
129
  8
Layer_0
  10
386.47436
  20
295.51281
  0
VERTEX
  5
12a
  8
Layer_0
  10
386.01677
  20
297.57018
  0
VERTEX
  5
12b
  8
Layer_0
  10
385.54418
  20
299.60302
  0
VERTEX
  5
12c
  8
Layer_0
  10
385.05604
  20
301.61281
  0
VERTEX
  5
12d
  8
Layer_0
  10
384.5518
  20
303.60105
  0
VERTEX
  5
12e
  8
Layer_0
  10
383.49279
  20
307.51878
  0
VERTEX
  5
12f
  8
Layer_0
  10
382.36274
  20
311.36809
  0
VERTEX
  5
130
  8
Layer_0
  10
381.15723
  20
315.16086
  0
VERTEX
  5
131
  8
Layer_0
  10
379.87184
  20
318.90897
  0
VERTEX
  5
132
  8
Layer_0
  10
378.50217
  20
322.62431
  0
VERTEX
  5
133
  8
Layer_0
  10
377.04379
  20
326.31875
  0
VERTEX
  5
134
  8
Layer_0
  10
375.49228
  20
330.00417
  0
VERTEX
  5
135
  8
Layer_0
  10
373.84324
  20
333.69245
  0
VERTEX
  5
136
  8
Layer_0
  10
372.98076
  20
335.54137
  0
VERTEX
  5
137
  8
Layer_0
  10
372.09224
  20
337.39547
  0
VERTEX
  5
138
  8
Layer_0
  10
371.17713
  20
339.25622
  0
VERTEX
  5
139
  8
Layer_0
  10
370.23487
  20
341.12512
  0
VERTEX
  5
13a
  8
Layer_0
  10
369.26492
  20
343.00363
  0
VERTEX
  5
13b
  8
Layer_0
  10
368.26672
  20
344.89326
  0
VERTEX
  5
13c
  8
Layer_0
  10
367.23972
  20
346.79549
  0
VERTEX
  5
13d
  8
Layer_0
  10
366.18336
  20
348.71179
  0
VERTEX
  5
13e
  8
Layer_0
  10
365.0971
  20
350.64366
  0
VERTEX
  5
13f
  8
Layer_0
  10
363.98038
  20
352.59258
  0
VERTEX
  5
140
  8
Layer_0
  10
362.83265
  20
354.56004
  0
VERTEX
  5
141
  8
Layer_0
  10
361.65337
  20
356.54752
  0
SEQEND
  0
ENDSEC
  0
EOF
